<svg width="221" height="52" viewBox="0 0 221 52" fill="none" xmlns="http://www.w3.org/2000/svg">
<path d="M63.6285 33.7903H67.77V35.1694C67.77 37.6844 67.1859 39.5422 66.0217 40.7389C64.8535 41.9355 62.9835 42.5318 60.4077 42.5318H52.1245C49.5487 42.5318 47.6747 41.9355 46.5105 40.7389C45.3423 39.5422 44.7622 37.6885 44.7622 35.1694V24.1239C44.7622 21.609 45.3463 19.7511 46.5105 18.5545C47.6747 17.3579 49.5487 16.7616 52.1245 16.7616H60.4077C62.9835 16.7616 64.8575 17.3619 66.0217 18.5545C67.1859 19.7511 67.77 21.609 67.77 24.1239V25.5031H63.6285V24.1239C63.6285 22.834 63.3972 21.9294 62.9389 21.4102C62.4805 20.8869 61.6327 20.6273 60.4077 20.6273H52.1245C50.8955 20.6273 50.0558 20.8869 49.5934 21.4102C49.135 21.9335 48.9038 22.838 48.9038 24.1239V35.1694C48.9038 36.4594 49.135 37.364 49.5934 37.8832C50.0517 38.4064 50.8955 38.6661 52.1245 38.6661H60.4077C61.6327 38.6661 62.4805 38.4064 62.9389 37.8832C63.3972 37.3599 63.6285 36.4553 63.6285 35.1694V33.7903Z" fill="black"/>
<path d="M87.5611 16.7656C90.0761 16.7656 91.9339 17.366 93.1305 18.5586C94.3272 19.7552 94.9235 21.613 94.9235 24.128V35.1735C94.9235 37.6885 94.3272 39.5463 93.1305 40.7429C91.9339 41.9396 90.0761 42.5358 87.5611 42.5358H79.278C76.763 42.5358 74.9052 41.9396 73.7086 40.7429C72.5119 39.5463 71.9156 37.6925 71.9156 35.1735C71.9156 34.0702 72.0617 33.1494 72.3537 32.4111C72.6458 31.6728 73.1731 31.0766 73.9398 30.6182C74.3373 30.3748 74.7146 30.1679 75.0675 29.9976C75.4204 29.8272 75.7652 29.6852 76.1018 29.5595C76.4385 29.4378 76.8766 29.308 77.412 29.1701C77.9475 29.0321 78.5681 28.8699 79.2739 28.6874L90.7778 25.8357V24.132C90.7778 22.8421 90.5466 21.9375 90.0883 21.4183C89.6299 20.895 88.7821 20.6354 87.5571 20.6354H79.2739C78.0448 20.6354 77.2011 20.895 76.7427 21.4183C76.2844 21.9416 76.0532 22.8462 76.0532 24.132V25.5112H71.9116V24.132C71.9116 21.6171 72.5079 19.7593 73.7045 18.5626C74.9011 17.366 76.7549 16.7697 79.2739 16.7697H87.5571L87.5611 16.7656ZM90.7819 29.7866L79.278 32.6869C78.6006 32.8695 78.0489 33.0317 77.623 33.1697C77.193 33.3076 76.8644 33.4698 76.6332 33.6524C76.402 33.8349 76.2479 34.0418 76.1748 34.273C76.0978 34.5042 76.0613 34.8003 76.0613 35.1695C76.0613 36.4594 76.2925 37.364 76.7509 37.8832C77.2092 38.4064 78.053 38.6661 79.282 38.6661H87.5652C88.7902 38.6661 89.638 38.4064 90.0964 37.8832C90.5547 37.3599 90.7859 36.4553 90.7859 35.1695V29.7866H90.7819Z" fill="black"/>
<path d="M118.394 7.56171H122.535V35.1735C122.535 37.6885 121.951 39.5463 120.787 40.7429C119.619 41.9396 117.749 42.5358 115.173 42.5358H106.89C104.314 42.5358 102.44 41.9396 101.276 40.7429C100.108 39.5463 99.5275 37.6925 99.5275 35.1735V24.128C99.5275 21.613 100.112 19.7552 101.276 18.5586C102.44 17.3619 104.314 16.7656 106.89 16.7656H118.394V7.56171ZM115.173 38.6701C116.398 38.6701 117.246 38.4105 117.704 37.8872C118.163 37.364 118.394 36.4594 118.394 35.1735V20.6314H106.89C105.661 20.6314 104.821 20.891 104.359 21.4143C103.9 21.9375 103.669 22.8421 103.669 24.128V35.1735C103.669 36.4634 103.9 37.368 104.359 37.8872C104.817 38.4105 105.661 38.6701 106.89 38.6701H115.173Z" fill="black"/>
<path d="M143.012 16.7656C145.588 16.7656 147.462 17.366 148.626 18.5586C149.79 19.7552 150.374 21.613 150.374 24.128V31.5836H131.508V35.1735C131.508 36.4634 131.739 37.368 132.198 37.8872C132.656 38.4105 133.5 38.6701 134.729 38.6701H143.012C144.237 38.6701 145.085 38.4105 145.543 37.8872C146.001 37.364 146.233 36.4594 146.233 35.1735V33.7943H150.374V35.1735C150.374 37.6885 149.79 39.5463 148.626 40.7429C147.458 41.9396 145.588 42.5358 143.012 42.5358H134.729C132.153 42.5358 130.279 41.9396 129.115 40.7429C127.946 39.5463 127.366 37.6925 127.366 35.1735V24.128C127.366 21.613 127.951 19.7552 129.115 18.5586C130.279 17.3619 132.153 16.7656 134.729 16.7656H143.012ZM146.233 27.7179V24.128C146.233 22.838 146.001 21.9335 145.543 21.4143C145.085 20.891 144.237 20.6314 143.012 20.6314H134.729C133.5 20.6314 132.66 20.891 132.198 21.4143C131.739 21.9375 131.508 22.8421 131.508 24.128V27.7179H146.233Z" fill="black"/>
<path d="M184.2 16.7656C186.715 16.7656 188.573 17.366 189.77 18.5586C190.966 19.7552 191.563 21.613 191.563 24.128V42.5358H187.421V24.128C187.421 22.838 187.19 21.9335 186.732 21.4143C186.273 20.891 185.425 20.6314 184.2 20.6314H178.68C177.451 20.6314 176.611 20.891 176.148 21.4143C175.69 21.9375 175.459 22.8421 175.459 24.128V42.5358H171.317V24.128C171.317 22.838 171.086 21.9335 170.628 21.4143C170.169 20.891 169.326 20.6314 168.097 20.6314H162.576C161.347 20.6314 160.507 20.891 160.045 21.4143C159.586 21.9375 159.355 22.8421 159.355 24.128V42.5358H155.213V24.128C155.213 21.613 155.81 19.7552 157.006 18.5586C158.203 17.3619 160.057 16.7656 162.576 16.7656H168.097C169.046 16.7656 169.837 16.8752 170.465 17.0861C171.094 17.3011 171.601 17.5607 171.983 17.869C172.368 18.1773 172.644 18.4977 172.81 18.8344C172.98 19.1711 173.078 19.4469 173.11 19.6619L173.155 19.9824H173.613C173.735 19.3982 173.982 18.8628 174.351 18.372C174.688 17.9744 175.187 17.6053 175.848 17.2686C176.505 16.9319 177.451 16.7616 178.68 16.7616H184.2V16.7656Z" fill="black"/>
<path d="M215.767 16.7656H220.185L206.977 51.7398H202.56L206.012 42.5358H204.081L194.325 16.7656H198.743L207.026 38.6701H207.484L215.767 16.7656Z" fill="black"/>
<path d="M17.6494 7.23313C7.91809 7.23313 3.05176e-05 15.1512 3.05176e-05 24.8825C3.05176e-05 34.6137 7.91809 42.5318 17.6494 42.5318H27.5632C29.279 42.5318 30.6703 41.1404 30.6703 39.4246C30.6703 37.7087 29.279 36.3174 27.5632 36.3174H17.6494C11.3417 36.3174 6.21035 31.1861 6.21035 24.8784C6.21035 18.5707 11.3417 13.4394 17.6494 13.4394C20.1197 13.4394 22.4967 14.2304 24.456 15.6826V29.5879C24.456 31.3037 25.8473 32.6951 27.5632 32.6951C29.279 32.6951 30.6703 31.3037 30.6703 29.5879V14.2304C30.6703 13.3704 30.3134 12.547 29.6806 11.9588C26.403 8.90436 22.1317 7.22502 17.6494 7.22502V7.23313Z" fill="url(#paint0_linear_15892_18810)"/>
<path d="M17.0003 7.24936C10.9928 7.58604 6.21036 12.5795 6.21036 18.6681C6.21036 19.743 6.3645 20.7855 6.64439 21.7753C8.00328 16.9725 12.4207 13.4435 17.6534 13.4435C20.1238 13.4435 22.5008 14.2345 24.46 15.6866V9.47226C22.6549 8.13366 20.5051 7.35889 18.2456 7.24531C18.0469 7.2372 17.8522 7.23314 17.6534 7.23314C17.4344 7.23314 17.2194 7.24125 17.0044 7.24936H17.0003Z" fill="url(#paint1_linear_15892_18810)"/>
<path d="M36.2884 9.4236C34.5726 9.4236 33.1812 10.8149 33.1812 12.5308V39.4327C33.1812 41.1486 34.5726 42.5399 36.2884 42.5399C38.0043 42.5399 39.3956 41.1486 39.3956 39.4327V12.5308C39.3956 10.8149 38.0043 9.4236 36.2884 9.4236Z" fill="url(#paint2_linear_15892_18810)"/>
<path d="M36.2884 9.4236C34.5726 9.4236 33.1812 10.8149 33.1812 12.5308V27.9369C33.1812 29.6528 34.5726 31.0441 36.2884 31.0441C38.0043 31.0441 39.3956 29.6528 39.3956 27.9369V12.5308C39.3956 10.8149 38.0043 9.4236 36.2884 9.4236Z" fill="url(#paint3_linear_15892_18810)"/>
<path d="M36.256 6.4746C37.972 6.4746 39.3632 5.08346 39.3632 3.36741C39.3632 1.65135 37.972 0.260216 36.256 0.260216C34.5399 0.260216 33.1488 1.65135 33.1488 3.36741C33.1488 5.08346 34.5399 6.4746 36.256 6.4746Z" fill="url(#paint4_linear_15892_18810)"/>
<defs>
<linearGradient id="paint0_linear_15892_18810" x1="14.6598" y1="42.1383" x2="17.122" y2="4.60054" gradientUnits="userSpaceOnUse">
<stop stop-color="#008B96"/>
<stop offset="1" stop-color="#00D2E0"/>
</linearGradient>
<linearGradient id="paint1_linear_15892_18810" x1="-0.0202475" y1="14.2791" x2="25.4538" y2="14.7537" gradientUnits="userSpaceOnUse">
<stop stop-color="#0090A7"/>
<stop offset="1" stop-color="#00A1AE" stop-opacity="0"/>
</linearGradient>
<linearGradient id="paint2_linear_15892_18810" x1="36.3736" y1="45.1401" x2="36.2803" y2="24.2091" gradientUnits="userSpaceOnUse">
<stop stop-color="#008B96"/>
<stop offset="1" stop-color="#00D2E0"/>
</linearGradient>
<linearGradient id="paint3_linear_15892_18810" x1="36.0451" y1="34.6016" x2="36.4264" y2="12.0643" gradientUnits="userSpaceOnUse">
<stop stop-color="#0090A7"/>
<stop offset="1" stop-color="#00A1AE" stop-opacity="0"/>
</linearGradient>
<linearGradient id="paint4_linear_15892_18810" x1="36.256" y1="-4.88733" x2="36.256" y2="7.25342" gradientUnits="userSpaceOnUse">
<stop stop-color="#008B96"/>
<stop offset="1" stop-color="#00D2E0"/>
</linearGradient>
</defs>
</svg>
