<svg width="40" height="40" viewBox="0 0 40 40" fill="none" xmlns="http://www.w3.org/2000/svg">
<path d="M17.9201 6.59694C8.03954 6.59694 0 14.0881 0 23.2946C0 32.5012 8.03954 39.9923 17.9201 39.9923H27.986C29.7282 39.9923 31.1409 38.676 31.1409 37.0527C31.1409 35.4293 29.7282 34.113 27.986 34.113H17.9201C11.5157 34.113 6.3056 29.2584 6.3056 23.2908C6.3056 17.3232 11.5157 12.4686 17.9201 12.4686C20.4283 12.4686 22.8418 13.2169 24.8311 14.5908V27.7463C24.8311 29.3697 26.2438 30.686 27.986 30.686C29.7282 30.686 31.1409 29.3697 31.1409 27.7463V13.2169C31.1409 12.4033 30.7784 11.6243 30.1359 11.0678C26.8081 8.17806 22.4712 6.58927 17.9201 6.58927V6.59694Z" fill="url(#paint0_linear_16182_13947)"/>
<path d="M17.2612 6.61231C11.1615 6.93083 6.30566 11.655 6.30566 17.4153C6.30566 18.4323 6.46217 19.4186 6.74636 20.355C8.12609 15.8112 12.6113 12.4724 17.9243 12.4724C20.4325 12.4724 22.846 13.2208 24.8353 14.5947V8.71535C23.0025 7.44892 20.8197 6.71592 18.5256 6.60847C18.3238 6.60079 18.1261 6.59695 17.9243 6.59695C17.7019 6.59695 17.4836 6.60463 17.2653 6.61231H17.2612Z" fill="url(#paint1_linear_16182_13947)"/>
<path d="M36.845 8.6693C35.1029 8.6693 33.6902 9.98562 33.6902 11.609V37.0604C33.6902 38.6837 35.1029 40 36.845 40C38.5872 40 39.9999 38.6837 39.9999 37.0604V11.609C39.9999 9.98562 38.5872 8.6693 36.845 8.6693Z" fill="url(#paint2_linear_16182_13947)"/>
<path d="M36.845 8.6693C35.1029 8.6693 33.6902 9.98562 33.6902 11.609V26.1844C33.6902 27.8077 35.1029 29.1241 36.845 29.1241C38.5872 29.1241 39.9999 27.8077 39.9999 26.1844V11.609C39.9999 9.98562 38.5872 8.6693 36.845 8.6693Z" fill="url(#paint3_linear_16182_13947)"/>
<path d="M36.8121 5.87931C38.5545 5.87931 39.9669 4.56318 39.9669 2.93965C39.9669 1.31613 38.5545 0 36.8121 0C35.0697 0 33.6572 1.31613 33.6572 2.93965C33.6572 4.56318 35.0697 5.87931 36.8121 5.87931Z" fill="url(#paint4_linear_16182_13947)"/>
<defs>
<linearGradient id="paint0_linear_16182_13947" x1="14.8847" y1="39.6201" x2="17.0565" y2="4.08624" gradientUnits="userSpaceOnUse">
<stop stop-color="#008B96"/>
<stop offset="1" stop-color="#00D2E0"/>
</linearGradient>
<linearGradient id="paint1_linear_16182_13947" x1="-0.0205307" y1="13.263" x2="25.843" y2="13.7801" gradientUnits="userSpaceOnUse">
<stop stop-color="#0090A7"/>
<stop offset="1" stop-color="#00A1AE" stop-opacity="0"/>
</linearGradient>
<linearGradient id="paint2_linear_16182_13947" x1="36.9315" y1="42.46" x2="36.8493" y2="22.6575" gradientUnits="userSpaceOnUse">
<stop stop-color="#008B96"/>
<stop offset="1" stop-color="#00D2E0"/>
</linearGradient>
<linearGradient id="paint3_linear_16182_13947" x1="36.5979" y1="32.4897" x2="36.9341" y2="11.1668" gradientUnits="userSpaceOnUse">
<stop stop-color="#0090A7"/>
<stop offset="1" stop-color="#00A1AE" stop-opacity="0"/>
</linearGradient>
<linearGradient id="paint4_linear_16182_13947" x1="36.8121" y1="-4.87" x2="36.8121" y2="6.61614" gradientUnits="userSpaceOnUse">
<stop stop-color="#008B96"/>
<stop offset="1" stop-color="#00D2E0"/>
</linearGradient>
</defs>
</svg>
