<svg width="40" height="41" viewBox="0 0 40 41" fill="none" xmlns="http://www.w3.org/2000/svg">
<path d="M20 0.925781C8.96 0.925781 0 9.88578 0 20.9258C0 31.9658 8.96 40.9258 20 40.9258C31.04 40.9258 40 31.9658 40 20.9258C40 9.88578 31.04 0.925781 20 0.925781ZM29.28 14.5258C28.98 17.6858 27.68 25.3658 27.02 28.9058C26.74 30.4058 26.18 30.9058 25.66 30.9658C24.5 31.0658 23.62 30.2058 22.5 29.4658C20.74 28.3058 19.74 27.5858 18.04 26.4658C16.06 25.1658 17.34 24.4458 18.48 23.2858C18.78 22.9858 23.9 18.3258 24 17.9058C24.0139 17.8422 24.012 17.7761 23.9946 17.7134C23.9772 17.6507 23.9447 17.5931 23.9 17.5458C23.78 17.4458 23.62 17.4858 23.48 17.5058C23.3 17.5458 20.5 19.4058 15.04 23.0858C14.24 23.6258 13.52 23.9058 12.88 23.8858C12.16 23.8658 10.8 23.4858 9.78 23.1458C8.52 22.7458 7.54 22.5258 7.62 21.8258C7.66 21.4658 8.16 21.1058 9.1 20.7258C14.94 18.1858 18.82 16.5058 20.76 15.7058C26.32 13.3858 27.46 12.9858 28.22 12.9858C28.38 12.9858 28.76 13.0258 29 13.2258C29.2 13.3858 29.26 13.6058 29.28 13.7658C29.26 13.8858 29.3 14.2458 29.28 14.5258Z" fill="#F5FDEC"/>
</svg>
