<svg width="50" height="41" viewBox="0 0 50 41" fill="none" xmlns="http://www.w3.org/2000/svg">
<path fill-rule="evenodd" clip-rule="evenodd" d="M25 0.925781C27.1375 0.925781 29.33 0.980781 31.455 1.07078L33.965 1.19078L36.3675 1.33328L38.6175 1.48578L40.6725 1.64578C42.903 1.81551 45.002 2.76687 46.5999 4.33229C48.1978 5.8977 49.192 7.97677 49.4075 10.2033L49.5075 11.2658L49.695 13.5408C49.87 15.8983 50 18.4683 50 20.9258C50 23.3833 49.87 25.9533 49.695 28.3108L49.5075 30.5858L49.4075 31.6483C49.1919 33.8752 48.1973 35.9546 46.5989 37.52C45.0005 39.0855 42.9009 40.0366 40.67 40.2058L38.62 40.3633L36.37 40.5183L33.965 40.6608L31.455 40.7808C29.3046 40.8739 27.1524 40.9223 25 40.9258C22.8476 40.9223 20.6954 40.8739 18.545 40.7808L16.035 40.6608L13.6325 40.5183L11.3825 40.3633L9.3275 40.2058C7.09703 40.0361 4.998 39.0847 3.40011 37.5193C1.80222 35.9539 0.807977 33.8748 0.5925 31.6483L0.4925 30.5858L0.305 28.3108C0.114582 25.8536 0.0128491 23.3903 0 20.9258C0 18.4683 0.13 15.8983 0.305 13.5408L0.4925 11.2658L0.5925 10.2033C0.807893 7.97716 1.80178 5.89841 3.39916 4.33305C4.99654 2.76768 7.09498 1.81607 9.325 1.64578L11.3775 1.48578L13.6275 1.33328L16.0325 1.19078L18.5425 1.07078C20.6938 0.977599 22.8467 0.929255 25 0.925781ZM20 14.8633V26.9883C20 28.1433 21.25 28.8633 22.25 28.2883L32.75 22.2258C32.9785 22.0943 33.1683 21.9048 33.3002 21.6766C33.4322 21.4484 33.5017 21.1894 33.5017 20.9258C33.5017 20.6621 33.4322 20.4032 33.3002 20.1749C33.1683 19.9467 32.9785 19.7573 32.75 19.6258L22.25 13.5658C22.0219 13.4341 21.7631 13.3648 21.4998 13.3648C21.2364 13.3649 20.9776 13.4343 20.7496 13.566C20.5215 13.6978 20.3322 13.8873 20.2006 14.1154C20.069 14.3436 19.9998 14.6024 20 14.8658V14.8633Z" fill="#F5FDEC"/>
</svg>
