<svg xmlns="http://www.w3.org/2000/svg" width="728" height="507" viewBox="0 0 728 507" fill="none">
    <g style="mix-blend-mode:multiply" opacity="0.44">
        <path d="M716.916 24.3466C709.561 15.2299 699.71 10.233 689.224 10.233C688.983 10.233 688.721 10.233 688.48 10.233L516.373 14.2199C515.935 6.2727 510.485 0 503.852 0C503.808 0 199.02 4.30584 199.02 4.30584C195.693 4.359 192.519 6.00691 190.198 8.90405C187.878 11.8012 186.586 15.6818 186.63 19.7218V21.8748L38.0783 25.3301C27.3956 25.5693 17.5447 30.9649 10.2988 40.4803C3.05286 49.9956 -0.581031 62.3816 0.0756967 75.3257L18.9676 452.459C19.6024 465.058 24.3308 476.646 31.927 484.833V491.77C31.927 500.169 37.553 507 44.4705 507H696.689C703.606 507 709.232 500.169 709.232 491.77V475.663C717.223 467.025 721.929 454.745 722.126 441.429L727.993 58.2352C728.19 45.4772 724.25 33.4367 716.894 24.3466H716.916Z" fill="#E57396"/>
    </g>
    <g style="mix-blend-mode:multiply" opacity="0.44">
        <path d="M696.711 458.891H44.4922V491.796H696.711V458.891Z" fill="#F489A3"/>
    </g>
    <path d="M503.853 15.1977L199.174 19.5237L199.421 45.1444L504.1 40.8184L503.853 15.1977Z" fill="#294056"/>
    <path d="M683.663 472.474L58.0424 481.51C44.0322 481.723 32.3425 468.54 31.5106 451.556L12.6187 74.4221C11.7212 56.3216 23.411 40.9322 38.3406 40.5866L688.72 25.4896C703.628 25.1441 715.777 39.8956 715.493 57.9961L709.626 441.19C709.363 458.44 697.871 472.287 683.663 472.5V472.474Z" fill="#3E587D"/>
    <path d="M688.174 83.1392L687.386 130.876L685.438 247.16L684.803 285.354L683.555 359.511L682.592 416.523C682.329 431.514 671.734 443.607 658.665 443.794L561.557 445.202L82.5395 452.113C69.6457 452.299 58.8973 440.843 58.1092 426.065L53.6654 341.596L53.5121 338.699L45.5001 185.842L40.8811 97.9438C40.0492 82.1823 50.8195 68.7864 64.5889 68.494L663.503 54.912C677.229 54.593 688.415 67.4308 688.152 83.1657L688.174 83.1392Z" fill="white"/>
    <path d="M82.2327 453.414C68.8793 453.414 57.8681 441.507 57.0582 426.144L52.483 338.751L39.8519 97.9958C39.4579 90.341 41.647 82.9254 46.0251 77.1311C50.7098 70.9647 57.4741 67.3233 64.5886 67.1639L663.503 53.5818C670.595 53.4224 677.469 56.7182 682.329 62.6454C686.904 68.2004 689.356 75.4832 689.224 83.138L688.436 130.874L684.605 359.536L683.642 416.549C683.38 432.337 672.412 444.882 658.665 445.068L82.5392 453.388C82.5392 453.388 82.3203 453.388 82.2108 453.388L82.2327 453.414ZM664.006 56.16C663.853 56.16 663.7 56.16 663.546 56.16L64.6324 69.7421C58.087 69.9015 51.8919 73.2239 47.6013 78.8853C43.6171 84.148 41.6032 90.8726 41.9753 97.8364L54.7596 341.489L59.2035 425.958C59.9478 440.071 70.2146 451.022 82.5611 450.809L658.687 442.49C671.274 442.304 681.322 430.902 681.563 416.496L684.408 247.106L686.357 130.821L687.145 83.0849C687.254 76.1211 685.043 69.5028 680.862 64.4528C676.506 59.1635 670.398 56.1334 664.028 56.1334L664.006 56.16Z" fill="#133C5E"/>
    <path d="M626.39 458.125C626.434 461.033 624.094 463.416 621.186 463.46C618.277 463.504 615.894 461.164 615.85 458.256C615.806 455.348 618.146 452.964 621.055 452.92C623.963 452.877 626.346 455.216 626.39 458.125Z" fill="#94E8FF"/>
    <path d="M644.138 458.124C644.182 461.033 641.842 463.416 638.934 463.46C636.025 463.504 633.642 461.164 633.598 458.256C633.555 455.347 635.894 452.964 638.803 452.92C641.711 452.876 644.094 455.216 644.138 458.124Z" fill="#EF6A41"/>
    <path d="M661.886 458.124C661.93 461.033 659.59 463.416 656.682 463.46C653.774 463.504 651.39 461.164 651.346 458.256C651.303 455.347 653.642 452.964 656.551 452.92C659.459 452.876 661.842 455.216 661.886 458.124Z" fill="#E1FF73"/>
</svg>